# xmcd
# Track frame offsets:
# 150
# 15456
# 34132
# 51583
# 64546
# 79007
# 96007
# 111140
# 128577
# 141751
# 153699
# 173372
# 195088
#
# Disc length: 2848 seconds
# Revision: 0
# Processed by: cddbd v1.4PL0 Copyright (c) Steve Scherf et al.
# Submitted via: VisiTrax 2.9.5.181 - For more info visit www.synapsa.com
#
DISCID=9b0b1e0d
DTITLE=George Thorogood and The Destroyers - Ride 'Til I Die
DYEAR=2003
DGENRE=Blues/Rock
TTITLE0=Greedy Man
TTITLE1=American Made
TTITLE2=Sweet Little Lady
TTITLE3=Don't Let the Bossman Get You Down
TTITLE4=Devil In Disguise
TTITLE5=She's Gone
TTITLE6=The Fixer
TTITLE7=You Don't Love Me, You Don't Care
TTITLE8=My Way
TTITLE9=That's It, I Quit
TTITLE10=I Washed My Hands In Muddy Water
TTITLE11=Move It
TTITLE12=Ride Til I Die
EXTD=
EXTT0=
EXTT1=
EXTT2=
EXTT3=
EXTT4=
EXTT5=
EXTT6=
EXTT7=
EXTT8=
EXTT9=
EXTT10=
EXTT11=
EXTT12=
PLAYORDER=
